<?xml version="1.0" standalone="no"?>
<!DOCTYPE svg PUBLIC "-//W3C//DTD SVG 20010904//EN"
 "http://www.w3.org/TR/2001/REC-SVG-20010904/DTD/svg10.dtd">
<svg version="1.0" xmlns="http://www.w3.org/2000/svg"
 width="700.000000pt" height="700.000000pt" viewBox="0 0 700.000000 700.000000"
 preserveAspectRatio="xMidYMid meet">
<metadata>
Created by potrace 1.14, written by Peter Selinger 2001-2017
</metadata>
<g transform="translate(0.000000,700.000000) scale(0.100000,-0.100000)"
fill="#000000" stroke="none">
<path d="M203 6986 c-125 -40 -211 -169 -200 -300 9 -109 72 -196 175 -244
l56 -25 489 -1 c539 -1 500 4 511 -66 3 -19 31 -161 62 -315 31 -154 58 -291
61 -305 2 -13 52 -261 110 -550 58 -289 107 -536 109 -550 3 -14 7 -32 9 -40
2 -8 7 -30 10 -48 3 -18 12 -64 20 -102 8 -38 17 -82 20 -97 2 -16 29 -152 60
-303 30 -151 57 -284 59 -295 2 -11 23 -114 46 -230 23 -115 44 -219 46 -230
2 -11 8 -42 14 -70 13 -65 19 -94 25 -128 3 -15 12 -59 20 -97 8 -38 17 -82
20 -97 55 -302 113 -430 263 -587 121 -126 309 -225 480 -253 26 -5 740 -8
1587 -8 l1540 0 85 23 c344 91 592 361 654 712 3 14 20 108 40 210 19 102 37
199 40 215 3 17 15 75 26 130 11 55 23 111 25 125 2 14 9 50 15 80 6 30 13 70
16 89 2 19 11 61 18 95 8 34 17 81 21 106 6 42 62 336 85 445 14 66 17 85 24
129 3 19 10 55 15 78 5 24 12 59 15 78 3 19 23 127 45 240 91 468 92 480 57
564 -32 76 -111 146 -190 167 -29 8 -710 11 -2418 11 -2185 1 -2378 2 -2382
17 -3 9 -10 43 -16 76 -17 93 -19 101 -51 260 -17 83 -33 161 -36 175 -2 14
-11 59 -20 100 -21 103 -19 92 -43 215 -12 61 -24 124 -26 140 -3 17 -9 46
-14 65 -5 19 -12 51 -15 70 -31 184 -76 260 -185 313 -45 22 -48 22 -690 24
-510 2 -654 -1 -687 -11z m6147 -2043 c0 -8 -25 -143 -55 -301 -31 -158 -58
-303 -61 -322 -3 -19 -7 -42 -9 -50 -2 -8 -7 -28 -9 -45 -3 -16 -17 -91 -31
-165 -15 -74 -28 -146 -31 -160 -17 -89 -24 -128 -29 -150 -7 -34 -14 -69 -20
-105 -8 -40 -36 -195 -41 -220 -7 -34 -46 -239 -51 -265 -6 -33 -64 -322 -67
-335 -7 -28 -47 -93 -73 -117 -36 -34 -97 -65 -148 -75 -22 -5 -701 -8 -1510
-8 -1640 2 -1499 -4 -1592 71 -68 56 -96 135 -149 424 -3 14 -22 113 -44 220
-22 107 -41 206 -44 220 -2 14 -20 104 -40 200 -19 96 -37 186 -40 200 -2 14
-11 59 -20 100 -8 41 -17 86 -20 100 -2 14 -14 72 -26 130 -12 58 -24 116 -26
130 -3 14 -27 136 -54 271 -28 136 -50 251 -50 257 0 6 731 9 2120 9 1822 0
2120 -2 2120 -14z"/>
<path d="M2502 1444 c-149 -31 -305 -144 -379 -274 -131 -231 -96 -514 86
-699 110 -111 236 -169 386 -176 70 -3 106 1 190 19 36 7 134 54 172 82 151
110 241 276 248 454 10 270 -161 510 -420 585 -76 22 -202 26 -283 9z"/>
<path d="M5710 1444 c-271 -57 -480 -329 -457 -598 10 -113 16 -136 59 -226
31 -63 58 -102 107 -151 111 -110 236 -167 386 -174 479 -24 777 512 506 910
-26 39 -74 92 -107 118 -58 47 -163 104 -207 113 -12 2 -33 6 -47 10 -53 12
-178 11 -240 -2z"/>
</g>
</svg>
